# xmcd
# 
# Track frame offsets:
#     150
#     24138
#     48908
#     70783
#     96305
#     122300
#     147755
#     174035
#     198810
#     221178
# 
# Disc length: 3334
# 
# Revision: 4
# Processed by: cddbd v1.5.2PL0 Copyright (c) Steve Scherf et al.
# Submitted via: BonkEnc v1.0.8
# 
DISCID=7b0d040a
DTITLE=T-Square - New-S
DYEAR=1991
DGENRE=Jazz
TTITLE0=Megalith
TTITLE1=Garty no Yume
TTITLE2=Manatsu no Tameiki
TTITLE3=Little League Star
TTITLE4=Your Restless Eyes
TTITLE5=Midnight Circle
TTITLE6=The Summer of '68
TTITLE7=Nab That Chap!!
TTITLE8=Romantic City
TTITLE9=When I Think of You
EXTD=YEAR: 1991
EXTT0=
EXTT1=
EXTT2=
EXTT3=
EXTT4=
EXTT5=
EXTT6=
EXTT7=
EXTT8=
EXTT9=
PLAYORDER=
